<?xml version="1.0" encoding="UTF-8"?>
<svg version="1.1" xmlns="http://www.w3.org/2000/svg" width="962" height="963">
<path d="M0 0 C1.9915297 1.04917359 3.99892156 2.06210837 6.01074219 3.07177734 C42.63022721 21.64938499 77.6925591 50.58972091 102.89355469 82.99755859 C103.78199463 84.06557324 104.67415848 85.13049728 105.56933594 86.19287109 C120.04215907 103.52175563 131.61659255 122.94725267 141.89355469 142.99755859 C142.45913086 144.09777344 142.45913086 144.09777344 143.03613281 145.22021484 C163.65661862 185.85358467 175.39344797 233.38969239 173.89355469 278.99755859 C174.45413574 279.01214111 175.0147168 279.02672363 175.59228516 279.04174805 C267.30864606 281.66195097 345.98322316 319.21192835 408.89355469 384.99755859 C412.10952829 388.50157606 415.0206669 392.2086776 417.89355469 395.99755859 C418.90251785 397.27995351 419.91306773 398.5611009 420.92480469 399.84130859 C428.52502912 409.52617244 435.49247267 419.48197708 441.89355469 429.99755859 C442.37679199 430.7911377 442.8600293 431.5847168 443.35791016 432.40234375 C486.09975516 503.3234852 498.86423532 590.46781236 479.20605469 670.87255859 C467.7613622 715.48926335 447.80241311 757.94217694 418.18261719 793.44824219 C416.89190524 794.99954106 415.62695927 796.56951515 414.36230469 798.14208984 C407.81919021 806.14189622 400.61224298 813.48865325 393.33105469 820.81005859 C392.60674255 821.54227127 392.60674255 821.54227127 391.86779785 822.28927612 C385.22572007 828.98731063 378.30909765 835.16259821 370.89355469 840.99755859 C370.17321045 841.5719165 369.45286621 842.14627441 368.71069336 842.73803711 C358.51590068 850.82040641 348.00610637 858.23308678 336.89355469 864.99755859 C336.09997559 865.4807959 335.30639648 865.9640332 334.48876953 866.46191406 C300.20935617 887.12099177 262.56759974 900.79507536 223.08105469 907.31005859 C221.74361206 907.53121338 221.74361206 907.53121338 220.37915039 907.75683594 C200.51861804 910.75923454 180.65166934 911.28722736 160.6030426 911.23806763 C157.91856688 911.23894172 155.23410218 911.24061286 152.54962867 911.24324596 C146.75550788 911.2473538 140.96142855 911.24417469 135.16731262 911.23596954 C126.55194043 911.22380345 117.93659389 911.22330676 109.32121467 911.22505352 C94.82253429 911.22766989 80.32387226 911.2210422 65.82519722 911.20901871 C51.48406445 911.19715653 37.14293933 911.18948115 22.80180168 911.18731308 C21.90780267 911.1871756 21.01380367 911.18703812 20.09271378 911.18689648 C15.55195082 911.18621974 11.01118786 911.185617 6.47042488 911.18504272 C-25.63389837 911.18084963 -57.73821165 911.16739657 -89.8425293 911.1484375 C-121.01798449 911.1300483 -152.19343695 911.11589105 -183.36889648 911.10742188 C-184.3310315 911.10715882 -185.29316652 911.10689577 -186.28445714 911.10662475 C-195.94722222 911.10398755 -205.60998732 911.10143594 -215.27275243 911.09894703 C-234.95430112 911.09387554 -254.63584964 911.08823304 -274.31739807 911.08224487 C-275.22218625 911.08197029 -276.12697442 911.08169571 -277.05918042 911.08141281 C-337.40827286 911.063033 -397.75735977 911.03134515 -458.10644531 910.99755859 C-458.1250212 829.12420932 -458.13655308 747.25085284 -457.87072563 463.81786919 C-457.86179151 460.05102417 -457.85288102 456.28417911 -457.84399414 452.51733398 C-457.84179057 451.58612862 -457.83958699 450.65492326 -457.83731665 449.69549955 C-457.80036397 433.94573962 -457.77631182 418.19598078 -457.75609829 402.44619145 C-457.73429709 385.62815863 -457.7014169 368.8101754 -457.65774375 351.99218494 C-457.63413475 342.79852765 -457.61486813 333.6049173 -457.60883141 324.41123009 C-457.60383002 316.7947909 -457.58875224 309.17845446 -457.56077965 301.56206354 C-457.54698477 297.72669205 -457.53751259 293.89146429 -457.54143715 290.05606651 C-457.56108442 265.96469191 -456.63556084 241.78666526 -451.35644531 218.18505859 C-451.10040527 217.00041016 -450.84436523 215.81576172 -450.58056641 214.59521484 C-440.43783063 168.9131644 -420.79958027 126.00072717 -392.10644531 88.99755859 C-391.4503125 88.14677734 -390.79417969 87.29599609 -390.11816406 86.41943359 C-385.80284615 80.91934904 -381.21407926 75.72766591 -376.47753906 70.58740234 C-374.47681357 68.40209592 -372.53167579 66.18644577 -370.60644531 63.93505859 C-364.00408652 56.35399721 -356.71439035 49.54778113 -349.10644531 42.99755859 C-348.4702124 42.4493042 -347.83397949 41.9010498 -347.1784668 41.33618164 C-298.04896249 -0.66233166 -237.32113061 -26.29915658 -173.10644531 -33.00244141 C-172.21812012 -33.0981543 -171.32979492 -33.19386719 -170.41455078 -33.29248047 C-112.21398669 -38.90047818 -51.66382074 -27.46943242 0 0 Z M-297.48242188 93.63378906 C-299.13447677 95.02109794 -300.80320239 96.38636641 -302.47363281 97.75146484 C-315.84113572 108.81055402 -328.69129848 121.09242396 -339.10644531 134.99755859 C-339.58500977 135.62678223 -340.06357422 136.25600586 -340.55664062 136.90429688 C-349.02974217 148.08806182 -356.43325439 159.65779243 -363.10644531 171.99755859 C-363.47608398 172.68027832 -363.84572266 173.36299805 -364.2265625 174.06640625 C-382.5287841 208.30083827 -392.37047258 246.9708668 -392.42430115 285.77388 C-392.43354927 287.28410778 -392.44362228 288.79433069 -392.45443338 290.30454808 C-392.48135027 294.40777374 -392.49637374 298.51096448 -392.50909695 302.61425546 C-392.5249145 307.07004534 -392.55159111 311.52577384 -392.57662392 315.9815197 C-392.6239259 324.74153037 -392.66021972 333.50155456 -392.69247304 342.26163228 C-392.71925546 349.48762005 -392.75026746 356.7135794 -392.78378105 363.93953896 C-393.21810535 458.09016551 -393.22772663 552.24107501 -393.17847383 646.39248765 C-393.17035086 662.09751421 -393.1650154 677.80254014 -393.16137695 693.50756836 C-393.16111423 694.63830232 -393.16085151 695.76903628 -393.16058082 696.93403491 C-393.15927436 702.61513441 -393.15801099 708.29623391 -393.15676892 713.97733343 C-393.14665611 759.98407942 -393.12837497 805.99081642 -393.10644531 851.99755859 C-351.19644531 851.99755859 -309.28644531 851.99755859 -266.10644531 851.99755859 C-266.04585938 831.36482422 -265.98527344 810.73208984 -265.92285156 789.47412109 C-265.88290247 775.89453072 -265.84294938 762.31494042 -265.80249023 748.73535156 C-265.79993685 747.87794399 -265.79738346 747.02053642 -265.7947527 746.1371468 C-265.71209681 718.40032398 -265.62496976 690.66351761 -265.53472419 662.9267185 C-265.51954383 658.25732039 -265.50442214 653.5879221 -265.48930264 648.91852379 C-265.48630096 647.99163097 -265.48329929 647.06473816 -265.48020666 646.10975768 C-265.4650258 641.42139928 -265.4498534 636.73304084 -265.43468875 632.04468238 C-265.43017853 630.65033013 -265.43017853 630.65033013 -265.42557719 629.22780915 C-265.41949719 627.34802513 -265.41341812 625.46824111 -265.40733999 623.58845709 C-265.39206736 618.86661498 -265.37676123 614.14477298 -265.36138988 609.42293119 C-265.21758362 565.24010386 -265.08698826 521.05734177 -265.00846577 476.87434578 C-265.00294666 473.76934941 -264.99742395 470.66435305 -264.99189758 467.55935669 C-264.98987555 466.41907773 -264.98987555 466.41907773 -264.98781268 465.25576283 C-264.9679069 454.08715493 -264.94414239 442.91856131 -264.91667175 431.74996948 C-264.91403749 430.6766974 -264.91403749 430.6766974 -264.91135 429.58174305 C-264.89393134 422.51015123 -264.87596672 415.438561 -264.85723886 408.36697253 C-264.84817269 404.93334913 -264.83929102 401.49972528 -264.83053589 398.06610107 C-264.82881874 397.39313026 -264.82710159 396.72015945 -264.82533241 396.02679558 C-264.7966709 384.61735748 -264.78412631 373.20795049 -264.77565002 361.79848099 C-264.7671496 351.74643602 -264.74445416 341.69448698 -264.71045971 331.64249611 C-264.69157847 325.9240631 -264.67892438 320.20580895 -264.68411636 314.48734283 C-264.68876436 309.29331374 -264.67496471 304.0996601 -264.64701164 298.90570712 C-264.64017529 297.0490177 -264.63984 295.19228861 -264.64717686 293.33560109 C-264.77292311 258.05626033 -252.72682087 227.37290308 -228.10644531 201.99755859 C-205.73565897 179.54949838 -174.59434131 167.86517478 -143.10644531 167.62255859 C-110.87376535 167.9016973 -81.37329794 179.70666455 -58.10644531 201.99755859 C-57.35878906 202.68205078 -56.61113281 203.36654297 -55.84082031 204.07177734 C-44.74919575 214.56228239 -37.30837635 227.19314463 -31.10644531 240.99755859 C-30.62304688 242.06490234 -30.13964844 243.13224609 -29.64160156 244.23193359 C-27.01890362 250.51365389 -25.29689889 256.86344034 -23.85644531 263.49755859 C-23.6113623 264.61771362 -23.6113623 264.61771362 -23.36132812 265.76049805 C-20.72145845 278.8346074 -20.94327978 292.18991289 -20.90112305 305.46557617 C-20.89152502 307.39850566 -20.88151387 309.33143313 -20.87112427 311.26435852 C-20.84427746 316.47415334 -20.82315946 321.68395704 -20.80312228 326.8937819 C-20.78113677 332.35235569 -20.75381001 337.81090278 -20.72706604 343.26945496 C-20.677308 353.58922022 -20.63230707 363.90900044 -20.58904368 374.22879475 C-20.53952624 385.98463388 -20.48466227 397.74044619 -20.42936409 409.49625933 C-20.31580356 433.6633342 -20.20909848 457.83043514 -20.10644531 481.99755859 C-9.54644531 481.99755859 1.01355469 481.99755859 11.89355469 481.99755859 C11.93997701 456.3793321 11.97560743 430.76111583 11.99717903 405.14285564 C12.00746411 393.24618276 12.02147115 381.34953659 12.04443359 369.45288086 C12.06445261 359.0761864 12.07729121 348.69951131 12.08173168 338.32279807 C12.08432472 332.83531375 12.09036094 327.34788479 12.1050148 321.86041832 C12.11873364 316.68042248 12.12274887 311.50050407 12.11977005 306.32049179 C12.12031389 304.43371343 12.1242052 302.54693208 12.13196564 300.6601696 C12.19359224 284.8843109 11.61258153 268.93778585 7.76855469 253.56005859 C7.44987427 252.26684692 7.44987427 252.26684692 7.12475586 250.94750977 C0.24883375 224.43023034 -13.3798091 201.78967584 -32.10644531 181.99755859 C-32.87472656 181.17642578 -33.64300781 180.35529297 -34.43457031 179.50927734 C-60.60327532 152.36979779 -98.89774204 135.83396907 -136.53222656 134.79443359 C-180.3596708 134.2077407 -219.51463768 149.12258639 -251.33300781 179.29052734 C-277.6934695 205.01982305 -296.65064058 242.74216024 -297.26424313 279.99506378 C-297.28464245 282.38392017 -297.29978173 284.77282498 -297.31077576 287.16174316 C-297.32028741 288.49898125 -297.33019643 289.83621656 -297.34046549 291.17344904 C-297.36734702 294.84336356 -297.38812933 298.51329032 -297.40770301 302.18325019 C-297.42527161 305.34648734 -297.44619252 308.509699 -297.46708129 311.6729157 C-297.53036913 321.27254727 -297.5839885 330.87221907 -297.63514256 340.47192192 C-297.65994121 345.11748977 -297.6860816 349.76304888 -297.71269989 354.40860662 C-298.22459864 443.75629747 -298.22702139 533.10363056 -298.17847288 622.45247746 C-298.17036616 637.54400154 -298.16502084 652.63552498 -298.16137695 667.72705078 C-298.16098287 669.35447095 -298.16098287 669.35447095 -298.16058082 671.0147683 C-298.15927445 676.46528064 -298.15801106 681.91579299 -298.15676892 687.36630535 C-298.1466394 731.57672668 -298.12894916 775.78714196 -298.10644531 819.99755859 C-318.89644531 819.99755859 -339.68644531 819.99755859 -361.10644531 819.99755859 C-360.9662942 768.07753585 -360.82384363 716.15752254 -360.66145325 664.23756409 C-360.65904794 663.46820323 -360.65664264 662.69884237 -360.65416445 661.90616754 C-360.60185942 645.18283528 -360.54890316 628.45950513 -360.49527676 611.73617705 C-360.46897946 603.53416074 -360.44282595 595.33214397 -360.41674805 587.13012695 C-360.41415064 586.31396062 -360.41155323 585.49779428 -360.40887711 584.65689563 C-360.32486982 558.23868832 -360.25034376 531.82046469 -360.18077428 505.40221574 C-360.10918697 478.23684709 -360.02795491 451.07152373 -359.93471808 423.90622035 C-359.9215306 420.06263887 -359.9084525 416.21905702 -359.89544106 412.37547493 C-359.89287702 411.6190592 -359.89031299 410.86264346 -359.88767126 410.08330604 C-359.84680391 397.94424213 -359.81599803 385.80517289 -359.78902673 373.66607103 C-359.76164415 361.43968327 -359.72349032 349.21336569 -359.67460986 336.98704468 C-359.64845398 330.37169961 -359.62724665 323.75640889 -359.61881256 317.14101028 C-359.61096593 311.06970826 -359.5893265 304.99860866 -359.5572776 298.9273876 C-359.54809344 296.74531251 -359.54372537 294.56320989 -359.54500451 292.38111585 C-359.56396209 235.89559198 -340.19980084 181.45826601 -300.56494141 140.50732422 C-299.5508951 139.45763183 -298.54389209 138.40110816 -297.54248047 137.33935547 C-260.48021098 98.07481915 -206.8442074 75.15067548 -153.13208008 72.87133789 C-113.96013357 71.85735456 -75.70671808 79.20420309 -41.10644531 97.99755859 C-40.44451172 98.34931152 -39.78257812 98.70106445 -39.10058594 99.06347656 C-24.0757828 107.06112895 -10.8432994 116.74155087 1.89355469 127.99755859 C2.41723633 128.45807617 2.94091797 128.91859375 3.48046875 129.39306641 C14.59676326 139.21532787 24.15080905 150.02824237 32.89355469 161.99755859 C33.49055176 162.80990967 33.49055176 162.80990967 34.09960938 163.63867188 C64.5972816 205.68849267 73.93712644 254.22784914 74.09887695 305.01147461 C74.10848335 306.95484614 74.11849491 308.8982157 74.12887573 310.84158325 C74.15563228 316.0614717 74.17679792 321.28136892 74.19687772 326.50128675 C74.21892033 331.97718686 74.2462186 337.45306087 74.27293396 342.92893982 C74.32261611 353.27336335 74.36764452 363.61780156 74.41095632 373.96225351 C74.46053949 385.74962336 74.51537865 397.53696698 74.57063591 409.32431138 C74.68407962 433.54870276 74.79081242 457.77311966 74.89355469 481.99755859 C85.45355469 481.99755859 96.01355469 481.99755859 106.89355469 481.99755859 C106.94002848 456.20491806 106.97563348 430.41228776 106.99717903 404.61961365 C107.00745284 392.64125129 107.02143786 380.66291556 107.04443359 368.68457031 C107.06448762 358.23348216 107.07729936 347.78241332 107.08173168 337.33130646 C107.0843189 331.80733344 107.09031685 326.28341562 107.1050148 320.75946045 C107.2972489 245.47915218 92.81727072 179.97889248 41.89355469 121.99755859 C40.59224609 120.510625 40.59224609 120.510625 39.26464844 118.99365234 C35.04427402 114.25781234 30.78051226 109.79166929 25.91699219 105.71630859 C24.51429596 104.52482917 23.14605046 103.29204898 21.80761719 102.02880859 C4.47654664 85.70329504 -16.61219027 73.03540267 -38.10644531 62.99755859 C-38.73695801 62.69897949 -39.3674707 62.40040039 -40.01708984 62.09277344 C-121.99250757 23.55193523 -227.60893306 34.95608256 -297.48242188 93.63378906 Z M-184.37597656 246.02880859 C-197.47927737 260.93640138 -202.56304866 275.48090411 -202.53881836 295.15966797 C-202.54785697 296.65801286 -202.55818926 298.15635042 -202.56970215 299.65467834 C-202.59715776 303.70432552 -202.60654916 307.75383208 -202.61255622 311.80356026 C-202.62204068 316.09561621 -202.64828395 320.38757228 -202.67256165 324.67956543 C-202.71620595 332.84445664 -202.74472874 341.00932851 -202.76788503 349.17430067 C-202.79453515 358.29805091 -202.83871972 367.42168782 -202.88416839 376.54536057 C-203.05783356 411.69606602 -203.14829193 446.84640168 -203.10644531 481.99755859 C-192.21644531 481.99755859 -181.32644531 481.99755859 -170.10644531 481.99755859 C-170.10279968 479.52445694 -170.09915405 477.05135529 -170.09539795 474.50331116 C-170.05916886 451.21037469 -170.0009711 427.91756711 -169.92254257 404.62473392 C-169.88274868 392.6493158 -169.85035791 380.67396342 -169.83544922 368.69848633 C-169.82243458 358.25955322 -169.79547454 347.82076477 -169.75183225 337.38191313 C-169.72921341 331.85560532 -169.7135349 326.32947595 -169.71456146 320.80311775 C-169.71530781 315.59838463 -169.69736675 310.39404602 -169.66527748 305.18941498 C-169.65677954 303.28233324 -169.65502782 301.37520725 -169.66064262 299.46811485 C-169.7076924 281.02683654 -169.7076924 281.02683654 -165.10644531 273.99755859 C-164.54957031 273.09005859 -163.99269531 272.18255859 -163.41894531 271.24755859 C-157.84996927 265.82909542 -151.15242327 262.89699778 -143.41894531 262.74755859 C-135.09096429 262.88207811 -128.92433094 265.2307809 -122.83300781 270.97021484 C-116.67418492 278.20195484 -115.96037451 286.92635957 -115.94822693 296.08407593 C-115.94081996 297.28007949 -115.94081996 297.28007949 -115.93326336 298.50024474 C-115.91794819 301.16259604 -115.90954401 303.82492333 -115.90112305 306.48730469 C-115.89153982 308.39949757 -115.88152948 310.31168836 -115.87112427 312.22387695 C-115.84411735 317.40929324 -115.82308498 322.5947186 -115.80312228 327.78016615 C-115.78123673 333.2014121 -115.75386061 338.62263025 -115.72706604 344.04385376 C-115.6771739 354.30718605 -115.63222216 364.57053379 -115.58904368 374.83389628 C-115.53964157 386.5194421 -115.48473447 398.20496002 -115.42936409 409.89047885 C-115.31559743 433.92614625 -115.20894208 457.96184072 -115.10644531 481.99755859 C-104.54644531 481.99755859 -93.98644531 481.99755859 -83.10644531 481.99755859 C-83.06009592 456.64958852 -83.02442969 431.30162869 -83.00282097 405.95362473 C-82.99251983 394.18342392 -82.97848172 382.41324997 -82.95556641 370.64306641 C-82.93559694 360.38107066 -82.92272043 350.11909438 -82.91826832 339.85707974 C-82.91566697 334.4262687 -82.90957689 328.99551331 -82.8949852 323.56472015 C-82.88134508 318.44630407 -82.87723562 313.32796623 -82.88022995 308.20953369 C-82.87968265 306.33755314 -82.87574372 304.4655698 -82.86803436 302.59360504 C-82.78547411 281.50039748 -85.78656835 262.95052571 -100.73144531 246.81005859 C-113.54075407 234.76733009 -129.157663 229.57717639 -146.46582031 229.79443359 C-159.70036918 230.5328419 -174.754384 236.68333238 -184.37597656 246.02880859 Z M170.89355469 352.99755859 C170.89355469 363.55755859 170.89355469 374.11755859 170.89355469 384.99755859 C174.62667969 385.26568359 178.35980469 385.53380859 182.20605469 385.81005859 C231.3292301 389.66804996 278.31845364 407.05954847 314.74121094 440.99755859 C316.72224663 442.83837579 318.75792723 444.57480503 320.83105469 446.31005859 C358.40279284 479.28885881 382.00915423 532.7649004 385.89355469 581.99755859 C389.14705987 641.20460833 373.98875431 698.76899656 334.26855469 744.02880859 C331.53725171 747.07653082 328.72596741 750.04399824 325.89355469 752.99755859 C325.38953125 753.52881348 324.88550781 754.06006836 324.36621094 754.60742188 C294.7698752 785.67065829 255.17174197 806.16569136 213.33105469 814.81005859 C212.40010986 815.0050293 211.46916504 815.2 210.51000977 815.40087891 C188.85209344 819.57882857 166.94349042 819.30697766 144.99166858 819.31423283 C140.29463405 819.31796932 135.59763362 819.33314514 130.90061951 819.34684753 C122.78641312 819.36899239 114.67221907 819.38408197 106.55798912 819.39421463 C94.82655173 819.40887473 83.09515738 819.43443149 71.36374543 819.46254592 C52.3247838 819.5078816 33.28581593 819.5445507 14.24682617 819.57568359 C-4.23463027 819.60592355 -22.71607149 819.64029862 -41.19750977 819.68017578 C-42.90974343 819.6838681 -42.90974343 819.6838681 -44.65656767 819.68763502 C-50.38376786 819.70001068 -56.11096786 819.71246701 -61.83816779 819.72496343 C-109.26090628 819.82833296 -156.68366294 819.9170613 -204.10644531 819.99755859 C-204.10644531 830.55755859 -204.10644531 841.11755859 -204.10644531 851.99755859 C-155.28978777 852.04282826 -106.47313529 852.07860852 -57.6564609 852.09968925 C-51.88531309 852.10219049 -46.11416532 852.10477915 -40.34301758 852.10742188 C-38.6197144 852.10820881 -38.6197144 852.10820881 -36.86159702 852.10901164 C-18.29098025 852.11769995 0.27962406 852.13346121 18.85023346 852.15186419 C37.9238134 852.17060711 56.99738683 852.18168459 76.0709756 852.18573558 C87.82804878 852.18847155 99.58508673 852.19709396 111.34214906 852.21339153 C119.41862496 852.22401269 127.49508281 852.22714767 135.57156517 852.22456135 C140.2221778 852.223288 144.87272913 852.22515609 149.52333069 852.23596954 C171.17073664 852.2838175 192.66712474 852.32286593 214.01855469 848.18505859 C214.92412109 848.01329102 215.8296875 847.84152344 216.76269531 847.66455078 C274.4191096 836.40321759 330.20204588 804.34207867 365.89355469 756.99755859 C366.30734375 756.46018066 366.72113281 755.92280273 367.14746094 755.36914062 C374.83603029 745.36895694 381.55037306 734.89411329 387.89355469 723.99755859 C388.25545898 723.38509277 388.61736328 722.77262695 388.99023438 722.14160156 C403.52805455 697.32992474 412.63517553 668.34689422 416.89355469 639.99755859 C417.07088135 638.85988037 417.24820801 637.72220215 417.4309082 636.55004883 C419.02276745 625.33477348 419.25229927 614.2511335 419.20605469 602.93505859 C419.20389954 601.9856842 419.20174438 601.03630981 419.19952393 600.0581665 C419.14781426 585.85654012 418.77161722 571.95180119 415.89355469 557.99755859 C415.58756348 556.50482422 415.58756348 556.50482422 415.27539062 554.98193359 C410.62340778 532.9882796 403.72999888 512.20781994 393.89355469 491.99755859 C393.53535645 491.26053711 393.1771582 490.52351562 392.80810547 489.76416016 C382.60513824 469.05937449 369.08723471 450.41921913 353.32324219 433.61474609 C351.37573114 431.5169448 349.52267433 429.39446087 347.70605469 427.18505859 C345.08473606 424.08577874 342.16266329 421.48620995 339.06933594 418.86474609 C336.76282769 416.88537277 334.55438443 414.81971666 332.33105469 412.74755859 C289.03125535 373.85670539 228.84647144 352.01530577 170.89355469 352.99755859 Z M170.89355469 447.99755859 C170.89355469 458.55755859 170.89355469 469.11755859 170.89355469 479.99755859 C176.27667969 480.58537109 176.27667969 480.58537109 181.76855469 481.18505859 C210.1210181 484.62713097 234.13987288 495.11441713 254.89355469 514.99755859 C255.64121094 515.68205078 256.38886719 516.36654297 257.15917969 517.07177734 C271.65848053 530.78527692 281.25632286 548.99948549 286.89355469 567.99755859 C287.18770264 568.97474854 287.18770264 568.97474854 287.48779297 569.97167969 C296.42365533 600.92936475 291.23428633 634.71247105 275.98950195 662.69921875 C259.89152186 691.2126097 233.23608976 711.08001723 201.89355469 719.99755859 C188.29251365 723.47016482 175.0819238 724.14715913 161.10652161 724.15577698 C159.52547781 724.16035083 157.9444352 724.16535205 156.36339396 724.17074054 C152.04424979 724.1842373 147.72511342 724.19171528 143.40595376 724.1981672 C138.73874592 724.20620862 134.07155414 724.21989338 129.40435791 724.23287964 C121.32653624 724.25458955 113.2487129 724.27275397 105.17087746 724.28848457 C93.4917992 724.31123333 81.81273875 724.33936911 70.13367566 724.36880385 C51.18344465 724.41641853 32.23320634 724.45969923 13.28295898 724.50024414 C-5.12134367 724.53963028 -23.52563984 724.58106394 -41.92993164 724.62524414 C-43.63266468 724.62933055 -43.63266468 724.62933055 -45.36979636 724.63349951 C-51.06475061 724.6471795 -56.75970476 724.66089967 -62.45465887 724.67463982 C-109.67190763 724.78850835 -156.88917059 724.89507093 -204.10644531 724.99755859 C-204.10644531 735.55755859 -204.10644531 746.11755859 -204.10644531 756.99755859 C-155.60388296 757.04280816 -107.10132569 757.07859771 -58.59874639 757.09968925 C-52.86750733 757.10219055 -47.1362683 757.10477921 -41.4050293 757.10742188 C-40.26408312 757.1079465 -39.12313694 757.10847112 -37.94761663 757.10901164 C-19.49392831 757.117705 -1.04025249 757.13346908 17.41342842 757.15186419 C36.36042765 757.17059297 55.30742034 757.18168161 74.25442845 757.18573558 C85.93781058 757.18847446 97.62115735 757.19711288 109.3045286 757.21339153 C117.32537673 757.2239952 125.34620668 757.22715158 133.36706131 757.22456135 C137.98882472 757.22328531 142.61052649 757.22518746 147.23227882 757.23596954 C151.47498702 757.24579435 155.71759287 757.2461345 159.96030606 757.23935638 C161.48415367 757.23852025 163.00800801 757.24097855 164.53184264 757.24732496 C178.70516489 757.3028552 192.7241876 756.17151509 206.51855469 752.74755859 C207.40115967 752.53139893 208.28376465 752.31523926 209.19311523 752.0925293 C247.3277303 742.37968128 281.44693919 716.46347765 301.89355469 682.99755859 C322.80050219 647.73658743 330.19551743 605.67027672 320.44042969 565.56787109 C309.72110456 525.57018362 284.58293598 490.44745395 248.76098633 469.2590332 C224.51550461 455.35985704 198.8847053 447.99755859 170.89355469 447.99755859 Z M-204.10644531 542.99755859 C-204.10644531 553.55755859 -204.10644531 564.11755859 -204.10644531 574.99755859 C-199.36576187 575.00120422 -194.62507843 575.00484985 -189.74073792 575.00860596 C-146.27271116 575.04387894 -102.80474489 575.09890225 -59.33677057 575.17547955 C-53.64028545 575.18549706 -47.94380005 575.19534118 -42.24731445 575.20507812 C-41.11324163 575.2070195 -39.97916881 575.20896087 -38.81073015 575.21096107 C-20.4454115 575.24198636 -2.08010535 575.25896321 16.28523456 575.27075282 C35.12827048 575.28316162 53.97124078 575.31065695 72.81423527 575.35217166 C84.44237527 575.37731474 96.07040645 575.39067528 107.69857401 575.38898817 C115.67128836 575.38895842 123.64389182 575.40357628 131.61656296 575.42972288 C136.21712759 575.44437768 140.81746484 575.45256415 145.41804886 575.44336128 C149.63210766 575.43507425 153.84570957 575.44522936 158.05970062 575.46989521 C159.58204786 575.47557887 161.10443841 575.47456329 162.62677258 575.46607104 C173.45371994 575.41086095 182.22667787 576.59745805 190.38574219 584.26318359 C196.05063041 590.77927264 196.59643525 597.91571008 196.33496094 606.33349609 C195.46493051 613.55551859 192.78140051 618.81202502 187.14355469 623.43505859 C178.57322493 629.6764944 168.59833913 629.43209793 158.46092224 629.39628601 C156.89397528 629.40173054 155.32703242 629.40848421 153.76009613 629.41642791 C149.47058717 629.43441016 145.18125172 629.43390145 140.89171398 629.43029845 C136.25989874 629.42967362 131.62814122 629.44630385 126.99635315 629.46081543 C118.97687284 629.48358992 110.95743594 629.49548456 102.93792534 629.49994469 C91.34313667 629.50640903 79.74842641 629.52935145 68.15366936 629.55628798 C49.34098267 629.5995467 30.52829928 629.62951869 11.71557617 629.65112305 C-6.55690128 629.67213547 -24.82935171 629.69941288 -43.10180664 629.73510742 C-44.79188637 629.73840566 -44.79188637 629.73840566 -46.51610912 629.74177053 C-52.16865255 629.75284025 -57.82119572 629.76403304 -63.47373879 629.77528703 C-110.35128514 629.86845919 -157.22884373 629.93924285 -204.10644531 629.99755859 C-204.10644531 640.55755859 -204.10644531 651.11755859 -204.10644531 661.99755859 C-156.06239901 662.06541061 -108.01836422 662.11910521 -59.97427949 662.15075458 C-54.29925916 662.1545066 -48.62423893 662.15838958 -42.94921875 662.16235352 C-41.25456277 662.16353391 -41.25456277 662.16353391 -39.52567132 662.16473816 C-21.24454409 662.17778384 -2.96344524 662.20143309 15.31766517 662.22901698 C34.08271693 662.25709446 52.84775385 662.27373981 71.61282575 662.27982408 C83.18721754 662.28393565 94.76152914 662.29691101 106.33589624 662.32130799 C114.27823512 662.33719409 122.22053267 662.34195245 130.16288628 662.33806273 C134.74177813 662.33614566 139.32053007 662.33903656 143.8993969 662.35517502 C148.09942981 662.36986945 152.29922988 662.37044966 156.49927394 662.36025528 C158.01095785 662.35899698 159.52265682 662.3627213 161.03431149 662.37220814 C180.17702047 662.48526379 196.5926667 658.39818291 211.35839844 645.56787109 C223.92496793 632.82703485 229.18351153 617.71561741 229.21044922 600.203125 C229.10444347 592.5641678 227.98331595 586.03911483 224.89355469 578.99755859 C224.49265625 578.07072266 224.09175781 577.14388672 223.67871094 576.18896484 C216.42534497 561.36686917 203.92315168 550.91443498 188.39355469 545.56005859 C182.60227713 543.78608209 177.38456073 542.87252057 171.31247997 542.87451077 C170.661752 542.87335692 170.01102403 542.87220308 169.34057704 542.87101427 C167.15705387 542.86836447 164.97360423 542.87285628 162.79008484 542.87730408 C161.21009565 542.87686804 159.63010653 542.87599254 158.05011779 542.87471491 C153.70600412 542.87247632 149.36191504 542.87648258 145.0178045 542.88149297 C140.33414038 542.88580638 135.65047768 542.88435041 130.96681213 542.8835907 C122.85122536 542.88306603 114.73564662 542.88620689 106.62006187 542.89182854 C94.88624907 542.89995124 83.15244016 542.90255955 71.41862486 542.90381653 C52.38186424 542.90600583 33.3451079 542.91266264 14.30834961 542.92211914 C-4.18546528 542.93129639 -22.679279 542.9383757 -41.1730957 542.94262695 C-42.3128144 542.94288968 -43.45253309 542.9431524 -44.62678871 542.94342308 C-50.34435075 542.94472811 -56.0619128 542.94599182 -61.77947485 542.94723499 C-109.22180146 542.95760382 -156.66412283 542.97549382 -204.10644531 542.99755859 Z " fill="#ABA6E3" transform="translate(465.1064453125,44.00244140625)"/>
</svg>
